<?xml version="1.0" encoding="utf-8"?>
<!-- Generator: Adobe Illustrator 16.0.0, SVG Export Plug-In . SVG Version: 6.00 Build 0)  -->
<!DOCTYPE svg PUBLIC "-//W3C//DTD SVG 1.1//EN" "http://www.w3.org/Graphics/SVG/1.1/DTD/svg11.dtd">
<svg version="1.1" id="_x3C_Слой_x3E_" xmlns="http://www.w3.org/2000/svg" xmlns:xlink="http://www.w3.org/1999/xlink" x="0px"
	 y="0px" width="32px" height="32px" viewBox="0 0 32 32" style="enable-background:new 0 0 32 32;" xml:space="preserve">
<style type="text/css">
<![CDATA[
	.st0{fill:#80D8FF;}
	.st1{opacity:0.96;}
	.st2{fill:#B39DDB;}
	.st3{fill:#EAC89B;}
	.st4{fill:#ECEFF1;}
	.st5{fill:#55FB9B;}
	.st6{fill:none;stroke:#455A64;stroke-miterlimit:10;}
	.st7{fill:#BC8671;}
	.st8{fill:#F27670;}
	.st9{fill:#F2C34E;}
	.st10{fill:#607D8B;}
	.st11{fill:#FF8A80;}
	.st12{fill:#FFADA9;}
	.st13{fill:#FFD869;}
	.st14{fill:#FFE0B2;}
	.st15{fill:#FFF176;}
	.st16{fill:#FFFDA6;}
	.st17{fill:#FFFFFF;}
	.st18{fill:#65C7EA;}
	.st19{fill:#9FE6FF;}
	.st20{fill:#CFD8DC;}
	.st21{fill:none;stroke:#455A64;stroke-linecap:round;stroke-linejoin:round;stroke-miterlimit:10;}
	.st22{fill:#D19D86;}
	.st23{fill:#A18DC5;}
	.st24{fill:#43E886;}
	.st25{fill:#455A64;}
	.st26{fill:none;stroke:#80D8FF;stroke-linecap:round;stroke-linejoin:round;stroke-miterlimit:10;}
]]>
</style>
<g id="positive_x2C__lol_x2C__smiley_x2C__laughter_x2C__smile_3_">
	<g id="XMLID_829_">
		<g id="XMLID_1460_">
			<circle id="XMLID_1466_" class="st13" cx="16" cy="16" r="13.5"/>
			<path id="XMLID_1464_" class="st9" d="M29,14.5C29,21.95,22.96,28,15.5,28c-5.66,0-10.5-3.49-12.51-8.44
				C4.56,25.29,9.78,29.5,16,29.5c7.46,0,13.5-6.04,13.5-13.5c0-1.79-0.36-3.5-0.99-5.06C28.82,12.07,29,13.26,29,14.5z"/>
			<path id="XMLID_1461_" class="st17" d="M3,17.5C3,10.04,9.04,4,16.5,4c5.66,0,10.5,3.49,12.51,8.44C27.44,6.71,22.22,2.5,16,2.5
				C8.54,2.5,2.5,8.54,2.5,16c0,1.79,0.36,3.5,0.99,5.06C3.18,19.93,3,18.73,3,17.5z"/>
		</g>
		<path id="XMLID_832_" class="st17" d="M25.17,11.74c0.35,4.34-0.8,8.84-5.94,9.96c-5.59,1.22-9.26-2.32-10.49-6.77
			c0,0,1.99-1.48,8.67-2.58C21.92,11.6,25.17,11.74,25.17,11.74z"/>
	</g>
	<g id="XMLID_741_">
		<circle id="XMLID_845_" class="st21" cx="16" cy="16" r="13.5"/>
		<path id="XMLID_844_" class="st21" d="M22.09,8.9c0,0-1.38-0.14-4.2,0.05c0.94-1.66,3.23-2.47,3.23-2.47"/>
		<path id="XMLID_843_" class="st21" d="M10.64,11.07c0,0,1.33-0.71,4.06-1.51c-1.2-1.41-4.34-1.15-4.34-1.15"/>
		<path id="XMLID_830_" class="st21" d="M7.81,15.68c0,0,2.1-2.08,9.6-3.33c4.51-0.75,7.76-0.61,7.76-0.61
			c0.35,4.34-0.8,8.84-5.94,9.96c-4.84,1.06-8.25-1.46-9.87-5.04"/>
		<path id="XMLID_726_" class="st21" d="M13.53,17.77c-0.03,0.01-0.07,0.03-0.1,0.04"/>
		<path id="XMLID_720_" class="st21" d="M24.86,16.03c-2.35-0.24-6.61,0.33-9.71,1.21"/>
	</g>
</g>
</svg>
