<?xml version="1.0" encoding="utf-8"?>
<!-- Generator: Adobe Illustrator 16.0.0, SVG Export Plug-In . SVG Version: 6.00 Build 0)  -->
<!DOCTYPE svg PUBLIC "-//W3C//DTD SVG 1.1//EN" "http://www.w3.org/Graphics/SVG/1.1/DTD/svg11.dtd">
<svg version="1.1" id="_x3C_Слой_x3E_" xmlns="http://www.w3.org/2000/svg" xmlns:xlink="http://www.w3.org/1999/xlink" x="0px"
	 y="0px" width="32px" height="32px" viewBox="0 0 32 32" style="enable-background:new 0 0 32 32;" xml:space="preserve">
<style type="text/css">
<![CDATA[
	.st0{fill:#80D8FF;}
	.st1{opacity:0.96;}
	.st2{fill:#B39DDB;}
	.st3{fill:#EAC89B;}
	.st4{fill:#ECEFF1;}
	.st5{fill:#55FB9B;}
	.st6{fill:none;stroke:#455A64;stroke-miterlimit:10;}
	.st7{fill:#BC8671;}
	.st8{fill:#F27670;}
	.st9{fill:#F2C34E;}
	.st10{fill:#607D8B;}
	.st11{fill:#FF8A80;}
	.st12{fill:#FFADA9;}
	.st13{fill:#FFD869;}
	.st14{fill:#FFE0B2;}
	.st15{fill:#FFF176;}
	.st16{fill:#FFFDA6;}
	.st17{fill:#FFFFFF;}
	.st18{fill:#65C7EA;}
	.st19{fill:#9FE6FF;}
	.st20{fill:#CFD8DC;}
	.st21{fill:none;stroke:#455A64;stroke-linecap:round;stroke-linejoin:round;stroke-miterlimit:10;}
	.st22{fill:#D19D86;}
	.st23{fill:#A18DC5;}
	.st24{fill:#43E886;}
	.st25{fill:#455A64;}
	.st26{fill:none;stroke:#80D8FF;stroke-linecap:round;stroke-linejoin:round;stroke-miterlimit:10;}
]]>
</style>
<g id="Emoji_x2C__lips_x2C__speechless_x2C__zipped_1_">
	<g id="XMLID_1199_">
		<circle id="XMLID_1234_" class="st13" cx="16" cy="16" r="13.5"/>
		<path id="XMLID_1233_" class="st9" d="M28.51,10.94C28.82,12.07,29,13.26,29,14.5C29,21.96,22.96,28,15.5,28
			C9.84,28,5,24.51,2.99,19.56C4.56,25.29,9.78,29.5,16,29.5c7.46,0,13.5-6.04,13.5-13.5C29.5,14.21,29.14,12.5,28.51,10.94z"/>
		<path id="XMLID_1232_" class="st17" d="M3.49,21.06C3.18,19.93,3,18.74,3,17.5C3,10.04,9.04,4,16.5,4c5.66,0,10.5,3.49,12.51,8.44
			C27.44,6.71,22.22,2.5,16,2.5C8.54,2.5,2.5,8.54,2.5,16C2.5,17.79,2.86,19.5,3.49,21.06z"/>
		<path id="XMLID_1662_" class="st25" d="M21,11.5c0.28,0,0.5,0.22,0.5,0.5s-0.22,0.5-0.5,0.5s-0.5-0.22-0.5-0.5S20.72,11.5,21,11.5
			z"/>
		<path id="XMLID_1661_" class="st25" d="M11,11.5c0.28,0,0.5,0.22,0.5,0.5s-0.22,0.5-0.5,0.5s-0.5-0.22-0.5-0.5S10.72,11.5,11,11.5
			z"/>
		<rect id="XMLID_1198_" x="2.5" y="20.5" class="st17" width="5" height="2"/>
	</g>
	<g id="XMLID_1133_">
		<polyline id="XMLID_1197_" class="st21" points="2.5,20.5 7.5,20.5 7.5,22.5 6.5,22.5 		"/>
		<path id="XMLID_1196_" class="st21" d="M4.5,20.5v5c0,0.55-0.45,1-1,1l0,0c-0.55,0-1-0.45-1-1v-3"/>
		<line id="XMLID_1195_" class="st21" x1="24.5" y1="22" x2="24.5" y2="22.5"/>
		<line id="XMLID_1192_" class="st21" x1="22.5" y1="22" x2="22.5" y2="22.5"/>
		<line id="XMLID_1189_" class="st21" x1="20.5" y1="22" x2="20.5" y2="22.5"/>
		<line id="XMLID_1186_" class="st21" x1="18.5" y1="22" x2="18.5" y2="22.5"/>
		<line id="XMLID_1182_" class="st21" x1="16.5" y1="22" x2="16.5" y2="22.5"/>
		<line id="XMLID_1179_" class="st21" x1="14.5" y1="22" x2="14.5" y2="22.5"/>
		<line id="XMLID_1134_" class="st21" x1="10.5" y1="22" x2="10.5" y2="22.5"/>
		<line id="XMLID_1176_" class="st21" x1="12.5" y1="22" x2="12.5" y2="22.5"/>
		<line id="XMLID_1240_" class="st21" x1="25.5" y1="20.5" x2="25.5" y2="21"/>
		<line id="XMLID_1236_" class="st21" x1="23.5" y1="20.5" x2="23.5" y2="21"/>
		<line id="XMLID_1229_" class="st21" x1="21.5" y1="20.5" x2="21.5" y2="21"/>
		<line id="XMLID_1225_" class="st21" x1="19.5" y1="20.5" x2="19.5" y2="21"/>
		<line id="XMLID_1202_" class="st21" x1="17.5" y1="20.5" x2="17.5" y2="21"/>
		<line id="XMLID_1191_" class="st21" x1="15.5" y1="20.5" x2="15.5" y2="21"/>
		<line id="XMLID_1183_" class="st21" x1="13.5" y1="20.5" x2="13.5" y2="21"/>
		<line id="XMLID_1135_" class="st21" x1="9.5" y1="20.5" x2="9.5" y2="21"/>
		<line id="XMLID_1175_" class="st21" x1="11.5" y1="20.5" x2="11.5" y2="21"/>
		<path id="XMLID_1178_" class="st21" d="M2.73,18.49C2.58,17.68,2.5,16.85,2.5,16C2.5,8.54,8.54,2.5,16,2.5S29.5,8.54,29.5,16
			S23.46,29.5,16,29.5c-3.74,0-7.12-1.52-9.56-3.97"/>
		<path id="XMLID_1656_" class="st6" d="M21,11.5c-0.28,0-0.5,0.22-0.5,0.5s0.22,0.5,0.5,0.5s0.5-0.22,0.5-0.5S21.28,11.5,21,11.5z"
			/>
		<path id="XMLID_1659_" class="st6" d="M11,11.5c-0.28,0-0.5,0.22-0.5,0.5s0.22,0.5,0.5,0.5s0.5-0.22,0.5-0.5S11.28,11.5,11,11.5z"
			/>
	</g>
</g>
</svg>
