<?xml version="1.0" encoding="utf-8"?>
<!-- Generator: Adobe Illustrator 16.0.0, SVG Export Plug-In . SVG Version: 6.00 Build 0)  -->
<!DOCTYPE svg PUBLIC "-//W3C//DTD SVG 1.1//EN" "http://www.w3.org/Graphics/SVG/1.1/DTD/svg11.dtd">
<svg version="1.1" id="_x3C_Слой_x3E_" xmlns="http://www.w3.org/2000/svg" xmlns:xlink="http://www.w3.org/1999/xlink" x="0px"
	 y="0px" width="32px" height="32px" viewBox="0 0 32 32" style="enable-background:new 0 0 32 32;" xml:space="preserve">
<style type="text/css">
<![CDATA[
	.st0{fill:#80D8FF;}
	.st1{opacity:0.96;}
	.st2{fill:#B39DDB;}
	.st3{fill:#EAC89B;}
	.st4{fill:#ECEFF1;}
	.st5{fill:#55FB9B;}
	.st6{fill:none;stroke:#455A64;stroke-miterlimit:10;}
	.st7{fill:#BC8671;}
	.st8{fill:#F27670;}
	.st9{fill:#F2C34E;}
	.st10{fill:#607D8B;}
	.st11{fill:#FF8A80;}
	.st12{fill:#FFADA9;}
	.st13{fill:#FFD869;}
	.st14{fill:#FFE0B2;}
	.st15{fill:#FFF176;}
	.st16{fill:#FFFDA6;}
	.st17{fill:#FFFFFF;}
	.st18{fill:#65C7EA;}
	.st19{fill:#9FE6FF;}
	.st20{fill:#CFD8DC;}
	.st21{fill:none;stroke:#455A64;stroke-linecap:round;stroke-linejoin:round;stroke-miterlimit:10;}
	.st22{fill:#D19D86;}
	.st23{fill:#A18DC5;}
	.st24{fill:#43E886;}
	.st25{fill:#455A64;}
	.st26{fill:none;stroke:#80D8FF;stroke-linecap:round;stroke-linejoin:round;stroke-miterlimit:10;}
]]>
</style>
<g id="Angry_x2C__evil_x2C__hatred_x2C__emoji_1_">
	<g id="XMLID_1208_">
		<circle id="XMLID_1224_" class="st11" cx="16" cy="16.5" r="13.5"/>
		<path id="XMLID_1223_" class="st17" d="M3.48,21.56C3.17,20.43,2.99,19.24,2.99,18c0-7.46,6.04-13.5,13.5-13.5
			C22.15,4.5,27,7.99,29,12.94C27.43,7.21,22.21,3,15.99,3C8.54,3,2.49,9.04,2.49,16.5C2.49,18.29,2.85,20,3.48,21.56z"/>
		<path id="XMLID_1222_" class="st8" d="M28.51,11.44C28.82,12.57,29,13.76,29,15c0,7.46-6.04,13.5-13.5,13.5
			c-5.66,0-10.5-3.49-12.51-8.44C4.56,25.79,9.78,30,16,30c7.46,0,13.5-6.04,13.5-13.5C29.5,14.71,29.14,13,28.51,11.44z"/>
		<path id="XMLID_1275_" class="st25" d="M21,13.5c0.28,0,0.5,0.22,0.5,0.5s-0.22,0.5-0.5,0.5s-0.5-0.22-0.5-0.5S20.72,13.5,21,13.5
			z"/>
		<path id="XMLID_1276_" class="st25" d="M11,13.5c0.28,0,0.5,0.22,0.5,0.5s-0.22,0.5-0.5,0.5s-0.5-0.22-0.5-0.5S10.72,13.5,11,13.5
			z"/>
		<path id="XMLID_1668_" class="st17" d="M23,23c0,0.55-0.22,1.05-0.59,1.41C22.05,24.78,21.55,25,21,25H11c-1.1,0-2-0.9-2-2
			s0.45-2.1,1.17-2.83C10.9,19.45,11.9,19,13,19h6C21.21,19,23,20.79,23,23z"/>
	</g>
	<g id="XMLID_1211_">
		<circle id="XMLID_1218_" class="st21" cx="16" cy="16.5" r="13.5"/>
		<line id="XMLID_1221_" class="st21" x1="23.5" y1="11.5" x2="18.5" y2="15"/>
		<path id="XMLID_1273_" class="st21" d="M21,13.5c0.28,0,0.5,0.22,0.5,0.5s-0.22,0.5-0.5,0.5s-0.5-0.22-0.5-0.5S20.72,13.5,21,13.5
			z"/>
		<line id="XMLID_1216_" class="st21" x1="8.5" y1="11.5" x2="13.5" y2="15"/>
		<path id="XMLID_1272_" class="st21" d="M11,13.5c-0.28,0-0.5,0.22-0.5,0.5s0.22,0.5,0.5,0.5s0.5-0.22,0.5-0.5S11.28,13.5,11,13.5z
			"/>
		<line id="XMLID_524_" class="st21" x1="11.5" y1="22" x2="22.8" y2="22"/>
		<line id="XMLID_1028_" class="st21" x1="13.5" y1="22" x2="13.5" y2="21"/>
		<path id="XMLID_1666_" class="st21" d="M21,25H11c-1.1,0-2-0.9-2-2s0.45-2.1,1.17-2.83C10.9,19.45,11.9,19,13,19h6
			c2.21,0,4,1.79,4,4c0,0.55-0.22,1.05-0.59,1.41C22.05,24.78,21.55,25,21,25z"/>
	</g>
</g>
</svg>
